<?xml version="1.0" standalone="no"?>
<!DOCTYPE svg PUBLIC "-//W3C//DTD SVG 20010904//EN"
 "http://www.w3.org/TR/2001/REC-SVG-20010904/DTD/svg10.dtd">
<svg version="1.0" xmlns="http://www.w3.org/2000/svg"
 width="500.000000pt" height="500.000000pt" viewBox="0 0 500.000000 500.000000"
 preserveAspectRatio="xMidYMid meet">
<metadata>
Created by potrace 1.14, written by Peter Selinger 2001-2017
</metadata>
<g transform="translate(0.000000,500.000000) scale(0.100000,-0.100000)"
fill="#000000" stroke="none">
<path d="M2363 4809 c-297 -19 -603 -101 -882 -237 l-115 -55 28 -22 c24 -19
26 -25 17 -44 -6 -11 -25 -28 -41 -36 -38 -19 -38 -39 -2 -58 26 -13 32 -12
75 13 25 14 56 38 67 53 12 15 29 27 39 27 10 0 39 16 64 35 50 38 74 44 79
18 3 -15 5 -15 21 2 33 32 101 75 122 75 27 0 85 21 118 43 14 9 39 17 55 17
17 0 41 12 62 30 18 17 41 30 51 30 9 0 23 10 31 22 l15 23 52 -19 c39 -14 86
-19 179 -21 175 -4 171 -3 148 -16 -10 -7 -65 -10 -130 -9 -208 3 -238 0 -206
-20 8 -6 119 -10 245 -10 127 0 264 -5 305 -10 l75 -10 62 -68 c34 -37 82 -95
105 -129 24 -34 48 -63 54 -63 6 0 29 -16 52 -36 34 -29 42 -42 42 -69 0 -19
-6 -38 -14 -42 -11 -7 -7 -34 21 -148 l35 -140 -10 -140 c-14 -196 -49 -320
-146 -515 -90 -180 -183 -287 -416 -477 -81 -66 -289 -183 -411 -232 -104 -41
-372 -98 -498 -106 l-104 -6 -38 -42 c-21 -23 -40 -52 -44 -65 -3 -13 -17 -42
-32 -64 -29 -47 -28 -93 4 -156 11 -20 25 -59 33 -85 15 -56 6 -73 -35 -63
-20 5 -32 20 -51 63 -14 31 -28 68 -31 83 -3 15 -15 33 -27 39 -11 6 -37 23
-56 37 -28 20 -44 24 -85 22 -49 -3 -50 -4 -53 -36 -2 -23 -8 -32 -16 -29 -30
12 -108 19 -140 13 -23 -5 -43 -18 -62 -44 -28 -35 -29 -41 -28 -152 l0 -115
41 -80 c45 -87 113 -165 143 -165 29 0 57 36 63 81 7 55 31 79 79 79 21 0 39
-3 39 -7 1 -5 3 -53 5 -108 1 -55 7 -113 12 -130 8 -29 11 -30 80 -36 40 -4
79 -12 87 -19 9 -8 15 -30 15 -59 0 -78 16 -114 74 -170 30 -28 59 -51 64 -51
5 0 28 6 50 14 34 12 44 12 67 0 32 -16 48 -10 40 16 -9 28 8 52 63 90 27 18
56 45 65 59 l15 25 11 -40 c6 -21 11 -50 11 -63 0 -38 14 -14 25 42 10 53 36
73 43 32 7 -45 11 -49 31 -31 17 16 19 16 24 -4 8 -33 35 -35 92 -7 45 22 58
24 82 15 23 -9 36 -8 60 4 l31 15 12 -41 c20 -65 37 -84 80 -96 22 -6 56 -24
75 -41 32 -28 38 -30 112 -28 99 3 114 -3 148 -51 15 -22 32 -40 37 -40 10 0
6 -69 -7 -107 -5 -16 -2 -24 15 -33 17 -9 28 -7 65 14 49 29 125 35 144 12 9
-11 44 -15 131 -18 l119 -3 41 -40 c22 -21 40 -47 40 -57 0 -27 -25 -77 -65
-128 -19 -25 -42 -58 -51 -73 -16 -30 -64 -173 -64 -193 0 -24 -80 -107 -119
-125 -25 -11 -49 -31 -59 -50 -36 -66 -74 -111 -105 -124 -18 -7 -38 -24 -46
-36 -13 -22 -13 -22 34 -16 90 13 280 59 385 94 231 77 480 209 684 362 172
130 382 344 431 441 10 19 38 60 62 91 25 31 74 117 110 195 66 141 78 173 93
254 4 25 22 76 39 114 29 64 30 70 16 92 -18 29 -49 31 -67 6 -7 -10 -21 -23
-30 -28 -9 -5 -29 -33 -45 -63 -35 -68 -72 -98 -99 -81 -35 23 -84 99 -84 130
0 20 -8 35 -25 46 -16 10 -25 26 -25 42 0 14 -10 36 -22 49 -21 23 -22 33 -24
206 0 115 -5 197 -13 223 -9 27 -11 71 -7 135 3 52 7 132 8 179 3 71 7 91 27
119 22 31 23 37 11 69 -14 39 -19 293 -6 330 5 15 18 25 38 29 37 7 68 54 68
102 0 26 9 43 40 73 22 22 40 44 40 49 0 4 4 11 10 14 9 6 43 -58 70 -132 7
-18 21 -35 31 -38 11 -4 33 -18 49 -32 18 -15 37 -23 46 -19 15 6 15 8 0 31
-9 13 -16 40 -16 60 0 28 5 38 25 47 14 6 25 16 25 22 0 6 -22 56 -48 111
l-48 100 -15 -29 c-15 -32 -39 -46 -39 -24 0 16 -57 78 -72 78 -6 0 -4 -9 4
-22 18 -27 29 -68 19 -68 -8 0 -71 80 -71 90 0 4 -27 22 -60 39 -33 18 -65 41
-70 52 -16 28 -40 24 -40 -8 0 -14 -7 -34 -16 -44 -15 -16 -15 -20 0 -50 9
-18 16 -46 16 -64 0 -17 12 -55 26 -83 17 -34 24 -62 21 -80 -3 -15 -1 -35 5
-45 7 -13 3 -30 -12 -63 l-22 -44 -54 0 c-60 0 -94 22 -94 63 0 13 -17 50 -39
83 -54 84 -102 175 -96 185 3 4 30 15 60 24 47 13 55 19 55 39 0 13 -7 30 -16
37 -9 7 -26 36 -39 65 -22 49 -25 52 -70 58 -75 12 -73 10 -56 75 20 79 4 161
-40 191 -25 19 -29 28 -29 70 l0 49 -70 43 c-54 33 -70 48 -70 66 0 32 -28 82
-45 82 -10 0 -15 -11 -15 -35 0 -30 -3 -35 -24 -35 -17 0 -37 16 -67 51 -38
45 -46 50 -72 45 -26 -5 -39 1 -81 36 -28 24 -64 58 -80 76 -16 19 -54 44 -83
57 -29 13 -53 28 -53 33 0 20 -66 55 -114 61 -42 5 -53 11 -63 32 -8 16 -29
33 -53 43 -42 17 -53 36 -21 36 10 0 24 7 32 16 7 9 21 13 33 10 12 -3 44 1
71 8 l50 13 -95 22 c-220 52 -490 75 -717 60z m1286 -676 c24 -14 60 -40 80
-58 20 -18 54 -41 76 -53 47 -24 134 -108 141 -138 8 -31 -33 -94 -61 -94 -18
0 -24 6 -27 28 -2 21 -9 28 -30 30 -22 3 -29 -2 -34 -22 -9 -36 -28 -32 -53 9
-12 21 -36 42 -55 50 -33 14 -34 16 -41 91 l-7 76 -54 25 c-30 13 -54 26 -54
27 0 2 5 17 11 34 9 28 14 31 37 26 15 -4 47 -18 71 -31z m-2039 -2068 c36
-18 36 -21 9 -36 -17 -9 -25 -7 -45 12 -38 36 -16 51 36 24z m20 -116 c15 -26
13 -29 -18 -29 -35 0 -60 34 -35 49 21 11 41 4 53 -20z m-76 -70 c21 -6 50
-23 65 -39 14 -15 37 -31 51 -34 37 -11 130 -57 130 -66 0 -15 -124 -18 -145
-4 -144 100 -178 113 -237 89 -56 -22 -68 -6 -23 34 39 34 86 40 159 20z m364
-144 c15 -8 39 -19 55 -25 31 -11 36 -30 8 -30 -11 0 -35 -8 -53 -19 -24 -13
-46 -17 -80 -14 -50 5 -60 15 -31 32 14 8 15 12 4 25 -34 41 39 64 97 31z
m176 -51 c21 -20 20 -34 -1 -34 -28 0 -47 16 -40 34 8 20 21 20 41 0z m146
-19 c0 -17 -2 -18 -24 -9 -23 9 -20 24 4 24 11 0 20 -7 20 -15z m-535 -25 c0
-20 -6 -26 -28 -28 -29 -4 -44 16 -33 44 4 10 15 14 33 12 22 -2 28 -8 28 -28z
m585 -40 c0 -5 -4 -10 -9 -10 -6 0 -13 5 -16 10 -3 6 1 10 9 10 9 0 16 -4 16
-10z m30 -70 c0 -5 -4 -10 -10 -10 -5 0 -10 5 -10 10 0 6 5 10 10 10 6 0 10
-4 10 -10z m10 -60 c0 -5 -7 -10 -16 -10 -8 0 -12 5 -9 10 3 6 10 10 16 10 5
0 9 -4 9 -10z m67 -32 c-3 -8 -6 -5 -6 6 -1 11 2 17 5 13 3 -3 4 -12 1 -19z"/>
<path d="M689 3943 c-144 -174 -290 -421 -373 -629 -226 -571 -223 -1205 11
-1779 184 -453 528 -856 958 -1125 211 -131 506 -246 771 -300 188 -37 574
-66 574 -42 0 4 -29 31 -64 60 -35 29 -72 69 -81 88 -9 19 -30 50 -47 69 -43
50 -160 125 -218 140 -54 14 -185 100 -229 151 -16 18 -43 40 -60 48 -31 17
-61 61 -61 92 0 10 -6 25 -14 33 -8 9 -21 35 -29 59 -14 39 -13 47 4 92 23 60
24 109 4 136 -8 10 -15 27 -15 36 0 20 -66 98 -82 98 -5 0 -12 -9 -15 -20 -8
-31 -41 -35 -70 -8 -13 12 -34 22 -45 20 -11 -2 -27 3 -36 11 -10 8 -26 17
-37 21 -11 3 -40 30 -65 58 -69 80 -123 128 -145 128 -34 1 -98 36 -134 74
-29 30 -42 36 -77 36 -59 0 -163 34 -212 69 -22 17 -53 51 -68 76 -15 26 -43
57 -63 70 -24 14 -44 39 -56 66 -10 24 -38 89 -63 144 -57 126 -87 221 -101
311 -6 39 -18 84 -27 100 -15 27 -15 27 -9 4 3 -14 8 -52 11 -85 3 -33 14 -82
24 -110 10 -27 28 -79 40 -115 12 -36 29 -80 38 -98 8 -17 13 -34 10 -37 -14
-14 -70 62 -111 154 -41 89 -49 117 -57 200 -5 53 -19 123 -31 156 -17 46 -22
85 -23 165 -1 65 -8 125 -18 159 -15 48 -15 65 -3 170 14 112 35 190 100 356
15 39 33 93 40 120 13 49 60 166 96 236 11 20 19 41 19 47 0 9 55 106 77 135
5 7 22 42 37 78 15 37 38 76 52 88 27 24 31 53 9 71 -13 10 -17 7 -29 -22 -8
-19 -35 -51 -60 -72 -45 -36 -46 -37 -46 -14 0 14 13 37 31 54 30 28 55 64 45
64 -3 0 -37 -39 -77 -87z"/>
</g>
</svg>
